# xmcd
#
# Track frame offsets: 
#        192
#        18812
#        42320
#        63132
#        79770
#        96977
#        112470
#        129982
#        149512
#        173320
#
# Disc length: 2812 seconds
#
# Revision: 0
# Processed by: cddbd v1.5PL3 Copyright (c) Steve Scherf et al.
# Submitted via: ExactAudioCopy v0.95a4
#
DISCID=7f0afa0a
DTITLE=The Assassins - Cut Me Loose
DYEAR=1989
DGENRE=Blues
TTITLE0=Backstreet Willie
TTITLE1=Cut Me Loose
TTITLE2=Keep Cool
TTITLE3=I  Just Want You
TTITLE4=Take Me In Your Arms
TTITLE5=Had It With You Baby
TTITLE6=A Shot of Rock and Roll
TTITLE7=This Is This
TTITLE8=I'm Changin'
TTITLE9=If You Go
EXTD=
EXTT0=
EXTT1=
EXTT2=
EXTT3=
EXTT4=
EXTT5=
EXTT6=
EXTT7=
EXTT8=
EXTT9=
PLAYORDER=
